<svg xmlns="http://www.w3.org/2000/svg" viewBox="0 0 512 512">
<defs><linearGradient id="g" x1="0" y1="0" x2="1" y2="1"><stop stop-color="#173324"/><stop offset="1" stop-color="#6d956f"/></linearGradient></defs>
<rect width="512" height="512" rx="112" fill="url(#g)"/>
<circle cx="385" cy="126" r="52" fill="#efd69a" opacity=".96"/>
<path d="M0 318C84 257 145 281 215 245c77-39 160-21 297 42v225H0Z" fill="#8aab78"/>
<path d="M0 360c88-52 177-33 245-4 77 33 153 22 267-18v174H0Z" fill="#50785b"/>
<path d="M156 330h200v126H156z" fill="#f1e7ce"/>
<path d="m135 332 121-95 122 95z" fill="#8b5c42"/>
<rect x="235" y="365" width="47" height="91" rx="6" fill="#5c4433"/>
<path d="M82 410c52-86 115-100 170-90" fill="none" stroke="#e7d99f" stroke-width="18" stroke-linecap="round"/>
</svg>